<?xml version="1.0" encoding="UTF-8"?>
<!DOCTYPE svg PUBLIC "-//W3C//DTD SVG 1.1//EN" "http://www.w3.org/Graphics/SVG/1.1/DTD/svg11.dtd">
<svg version="1.2" width="212.72mm" height="199.21mm" viewBox="0 0 21272 19921" preserveAspectRatio="xMidYMid" fill-rule="evenodd" stroke-width="28.222" stroke-linejoin="round" xmlns="http://www.w3.org/2000/svg" xmlns:ooo="http://xml.openoffice.org/svg/export" xmlns:xlink="http://www.w3.org/1999/xlink" xmlns:presentation="http://sun.com/xmlns/staroffice/presentation" xmlns:smil="http://www.w3.org/2001/SMIL20/" xmlns:anim="urn:oasis:names:tc:opendocument:xmlns:animation:1.0" xml:space="preserve">
 <defs class="ClipPathGroup">
  <clipPath id="presentation_clip_path" clipPathUnits="userSpaceOnUse">
   <rect x="0" y="0" width="21272" height="19921"/>
  </clipPath>
  <clipPath id="presentation_clip_path_shrink" clipPathUnits="userSpaceOnUse">
   <rect x="21" y="19" width="21230" height="19882"/>
  </clipPath>
 </defs>
 <defs class="TextShapeIndex">
  <g ooo:slide="id1" ooo:id-list="id3 id4 id5"/>
 </defs>
 <defs class="EmbeddedBulletChars">
  <g id="bullet-char-template-57356" transform="scale(0.00048828125,-0.00048828125)">
   <path d="M 580,1141 L 1163,571 580,0 -4,571 580,1141 Z"/>
  </g>
  <g id="bullet-char-template-57354" transform="scale(0.00048828125,-0.00048828125)">
   <path d="M 8,1128 L 1137,1128 1137,0 8,0 8,1128 Z"/>
  </g>
  <g id="bullet-char-template-10146" transform="scale(0.00048828125,-0.00048828125)">
   <path d="M 174,0 L 602,739 174,1481 1456,739 174,0 Z M 1358,739 L 309,1346 659,739 1358,739 Z"/>
  </g>
  <g id="bullet-char-template-10132" transform="scale(0.00048828125,-0.00048828125)">
   <path d="M 2015,739 L 1276,0 717,0 1260,543 174,543 174,936 1260,936 717,1481 1274,1481 2015,739 Z"/>
  </g>
  <g id="bullet-char-template-10007" transform="scale(0.00048828125,-0.00048828125)">
   <path d="M 0,-2 C -7,14 -16,27 -25,37 L 356,567 C 262,823 215,952 215,954 215,979 228,992 255,992 264,992 276,990 289,987 310,991 331,999 354,1012 L 381,999 492,748 772,1049 836,1024 860,1049 C 881,1039 901,1025 922,1006 886,937 835,863 770,784 769,783 710,716 594,584 L 774,223 C 774,196 753,168 711,139 L 727,119 C 717,90 699,76 672,76 641,76 570,178 457,381 L 164,-76 C 142,-110 111,-127 72,-127 30,-127 9,-110 8,-76 1,-67 -2,-52 -2,-32 -2,-23 -1,-13 0,-2 Z"/>
  </g>
  <g id="bullet-char-template-10004" transform="scale(0.00048828125,-0.00048828125)">
   <path d="M 285,-33 C 182,-33 111,30 74,156 52,228 41,333 41,471 41,549 55,616 82,672 116,743 169,778 240,778 293,778 328,747 346,684 L 369,508 C 377,444 397,411 428,410 L 1163,1116 C 1174,1127 1196,1133 1229,1133 1271,1133 1292,1118 1292,1087 L 1292,965 C 1292,929 1282,901 1262,881 L 442,47 C 390,-6 338,-33 285,-33 Z"/>
  </g>
  <g id="bullet-char-template-9679" transform="scale(0.00048828125,-0.00048828125)">
   <path d="M 813,0 C 632,0 489,54 383,161 276,268 223,411 223,592 223,773 276,916 383,1023 489,1130 632,1184 813,1184 992,1184 1136,1130 1245,1023 1353,916 1407,772 1407,592 1407,412 1353,268 1245,161 1136,54 992,0 813,0 Z"/>
  </g>
  <g id="bullet-char-template-8226" transform="scale(0.00048828125,-0.00048828125)">
   <path d="M 346,457 C 273,457 209,483 155,535 101,586 74,649 74,723 74,796 101,859 155,911 209,963 273,989 346,989 419,989 480,963 531,910 582,859 608,796 608,723 608,648 583,586 532,535 482,483 420,457 346,457 Z"/>
  </g>
  <g id="bullet-char-template-8211" transform="scale(0.00048828125,-0.00048828125)">
   <path d="M -4,459 L 1135,459 1135,606 -4,606 -4,459 Z"/>
  </g>
  <g id="bullet-char-template-61548" transform="scale(0.00048828125,-0.00048828125)">
   <path d="M 173,740 C 173,903 231,1043 346,1159 462,1274 601,1332 765,1332 928,1332 1067,1274 1183,1159 1299,1043 1357,903 1357,740 1357,577 1299,437 1183,322 1067,206 928,148 765,148 601,148 462,206 346,322 231,437 173,577 173,740 Z"/>
  </g>
 </defs>
 <g>
  <g id="id2" class="Master_Slide">
   <g id="bg-id2" class="Background"/>
   <g id="bo-id2" class="BackgroundObjects"/>
  </g>
 </g>
 <g class="SlideGroup">
  <g>
   <g id="container-id1">
    <g id="id1" class="Slide" clip-path="url(#presentation_clip_path)">
     <g class="Page">
      <g class="com.sun.star.drawing.ClosedBezierShape">
       <g id="id3">
        <rect class="BoundingBox" stroke="none" fill="none" x="1482" y="1397" width="18954" height="16250"/>
        <path fill="rgb(255,245,206)" stroke="none" d="M 20431,10944 C 20431,10868 20412,10793 20401,10717 20395,10678 20381,10642 20371,10604 20359,10567 20351,10528 20334,10493 20303,10421 20275,10347 20233,10281 20158,10141 20054,10021 19943,9908 19883,9858 19827,9800 19762,9757 L 19665,9688 19563,9629 C 19496,9586 19423,9558 19352,9524 19279,9494 19204,9468 19129,9444 19051,9425 18980,9401 18894,9390 L 18769,9370 C 18731,9365 18699,9363 18664,9360 L 18612,9356 18587,9354 18566,9353 18559,9353 18545,9353 18429,9355 C 18352,9358 18274,9353 18197,9365 L 17966,9394 17739,9445 C 17438,9523 17151,9644 16887,9795 16623,9946 16384,10127 16162,10317 15940,10508 15738,10712 15550,10914 15459,11014 15369,11112 15279,11211 15193,11299 15111,11388 15024,11468 14681,11793 14310,12047 13950,12165 13590,12288 13256,12279 12970,12184 12806,12130 12657,12049 12524,11955 12909,11967 13357,11917 13809,11719 14050,11612 14288,11462 14497,11270 14706,11079 14885,10849 15025,10599 15167,10350 15271,10082 15343,9808 15414,9534 15464,9254 15484,8973 15498,8833 15500,8691 15506,8551 15507,8421 15509,8289 15511,8157 15516,7899 15531,7645 15564,7395 15597,7145 15647,6897 15725,6662 15805,6428 15910,6207 16045,6004 16174,5799 16354,5625 16537,5476 16564,5456 16593,5433 16618,5416 L 16686,5374 C 16728,5343 16786,5320 16836,5292 16889,5268 16943,5246 16997,5226 17053,5211 17107,5189 17164,5180 17614,5073 18089,5224 18350,5586 L 18375,5620 18388,5636 18394,5644 C 18381,5621 18392,5641 18390,5637 L 18393,5642 18441,5727 C 18451,5742 18453,5751 18456,5761 L 18468,5792 18481,5822 18491,5859 C 18521,5957 18528,6064 18521,6171 18509,6386 18430,6600 18322,6787 18108,7168 17720,7390 17338,7448 17150,7476 16958,7462 16814,7384 16742,7346 16685,7290 16649,7225 16614,7158 16598,7082 16599,7005 16600,6986 16601,6967 16602,6948 16603,6933 16608,6909 16610,6890 16618,6853 16627,6821 16640,6787 16667,6720 16707,6662 16755,6614 16851,6520 16977,6472 17091,6462 17205,6452 17312,6483 17377,6543 17409,6573 17430,6609 17443,6645 17452,6682 17457,6717 17453,6749 17449,6812 17431,6860 17419,6891 17406,6921 17399,6937 17399,6937 17399,6937 17407,6922 17422,6892 17437,6862 17458,6816 17468,6750 17474,6718 17472,6680 17465,6639 17455,6599 17434,6556 17400,6520 17331,6446 17215,6404 17088,6405 16962,6407 16817,6448 16696,6550 16636,6601 16583,6667 16545,6744 16527,6781 16511,6826 16499,6868 16495,6890 16490,6905 16485,6932 16482,6954 16479,6976 16477,6999 16469,7090 16479,7191 16522,7287 16564,7382 16639,7467 16730,7523 16914,7640 17140,7669 17361,7654 17584,7637 17808,7574 18025,7458 18055,7443 18076,7430 18101,7415 18131,7397 18154,7380 18181,7362 18235,7328 18280,7284 18329,7243 18421,7157 18506,7060 18580,6954 18726,6741 18842,6492 18881,6210 18901,6070 18904,5921 18872,5771 L 18861,5715 18842,5655 18822,5594 C 18815,5574 18807,5553 18801,5540 L 18759,5453 18757,5448 C 18753,5440 18762,5456 18747,5430 L 18740,5418 18725,5395 18695,5348 C 18674,5317 18656,5284 18633,5255 L 18560,5167 C 18515,5106 18454,5058 18398,5004 18370,4978 18337,4957 18306,4933 18274,4911 18245,4885 18210,4867 18142,4829 18074,4787 18000,4760 17856,4695 17700,4662 17544,4640 17466,4636 17386,4625 17308,4630 L 17189,4634 17072,4649 C 16993,4656 16918,4678 16840,4694 16765,4715 16689,4739 16615,4766 16542,4798 16471,4822 16395,4865 L 16284,4926 C 16251,4945 16225,4963 16195,4982 L 16151,5009 16129,5023 16113,5035 16107,5040 16096,5049 16005,5120 C 15946,5169 15881,5213 15827,5269 L 15661,5432 15511,5611 C 15320,5855 15166,6126 15047,6405 14929,6686 14849,6975 14788,7261 14728,7547 14691,7832 14665,8106 14653,8241 14641,8374 14630,8507 14615,8629 14604,8749 14584,8866 14509,9333 14368,9759 14154,10072 13942,10388 13672,10584 13387,10682 13102,10782 12803,10790 12539,10752 12523,10750 12509,10747 12494,10744 12600,10686 12708,10621 12819,10544 13152,10315 13508,9985 13761,9517 13887,9285 13982,9020 14029,8740 14077,8461 14077,8169 14034,7886 13993,7603 13910,7327 13799,7067 13687,6807 13555,6555 13398,6321 13323,6203 13238,6089 13156,5976 13078,5872 12998,5767 12919,5661 12765,5454 12620,5245 12492,5027 12365,4809 12252,4583 12170,4350 12090,4116 12037,3876 12019,3633 11995,3392 12030,3144 12083,2914 12092,2882 12101,2845 12110,2817 L 12137,2742 C 12151,2692 12182,2638 12205,2585 12232,2534 12261,2483 12292,2434 12326,2388 12356,2337 12395,2296 12684,1935 13152,1762 13581,1888 L 13621,1899 13641,1904 13651,1907 C 13627,1896 13648,1905 13644,1904 L 13649,1906 13739,1943 C 13756,1949 13763,1955 13772,1961 L 13800,1978 13829,1994 13860,2017 C 13943,2076 14015,2156 14075,2245 14197,2423 14267,2640 14297,2854 14362,3286 14192,3699 13926,3979 13794,4118 13634,4224 13472,4251 13392,4265 13314,4256 13245,4226 13176,4196 13117,4145 13070,4084 L 13037,4037 C 13029,4025 13018,4002 13008,3986 12992,3952 12979,3922 12969,3886 12949,3817 12944,3747 12953,3680 12971,3546 13041,3431 13125,3353 13209,3276 13312,3234 13400,3242 13444,3245 13483,3261 13515,3282 13545,3305 13571,3330 13587,3357 13623,3410 13638,3458 13647,3490 13655,3523 13660,3539 13660,3539 13660,3539 13657,3522 13651,3489 13644,3457 13632,3407 13600,3349 13585,3320 13560,3291 13529,3263 13496,3238 13454,3217 13404,3209 13305,3193 13187,3231 13088,3310 12989,3389 12901,3510 12868,3665 12851,3742 12850,3826 12868,3911 12876,3951 12890,3996 12908,4037 12917,4057 12923,4072 12935,4096 12947,4115 12958,4135 12970,4154 13020,4231 13090,4304 13182,4354 13274,4403 13385,4423 13492,4412 13709,4391 13905,4276 14070,4128 14236,3978 14374,3791 14474,3566 14488,3536 14496,3513 14508,3486 14520,3453 14528,3425 14538,3394 14559,3334 14568,3272 14582,3210 14602,3085 14609,2957 14603,2827 14587,2569 14526,2302 14383,2055 14313,1932 14223,1812 14106,1714 L 14063,1676 14011,1640 13958,1605 C 13940,1593 13921,1581 13908,1575 L 13822,1532 13817,1529 C 13809,1525 13826,1532 13798,1521 L 13785,1516 13759,1507 13707,1488 C 13671,1476 13637,1462 13600,1453 L 13490,1428 C 13416,1408 13338,1408 13262,1399 13223,1395 13184,1399 13145,1400 13107,1402 13067,1399 13029,1407 12951,1418 12873,1427 12798,1451 12644,1488 12501,1558 12364,1636 12299,1681 12230,1721 12171,1773 L 12081,1849 11998,1932 C 11940,1987 11893,2050 11842,2111 11795,2174 11750,2239 11709,2306 11671,2376 11629,2439 11596,2519 L 11545,2635 C 11531,2671 11521,2701 11509,2734 L 11492,2783 11483,2807 11478,2826 11476,2833 11472,2847 11444,2960 C 11428,3035 11403,3109 11396,3187 L 11364,3418 11356,3650 C 11355,3961 11400,4269 11478,4563 11557,4857 11671,5134 11799,5397 11927,5660 12073,5907 12220,6140 12293,6253 12365,6365 12437,6477 12501,6583 12566,6684 12622,6789 12849,7204 13000,7626 13023,8005 13050,8384 12957,8706 12792,8957 12628,9211 12397,9400 12165,9533 12153,9540 12141,9547 12129,9554 11139,9252 12050,8325 12365,7877 12697,7407 12188,7253 12153,7073 12119,6894 12464,6935 12354,6645 12243,6355 11263,4999 11208,4736 11077,4605 10731,4650 10683,4736 10628,4999 9647,6355 9536,6645 9426,6935 9854,6852 9820,7032 9785,7211 9193,7407 9525,7877 9839,8322 10741,9241 9779,9548 9770,9543 9761,9539 9752,9533 9520,9400 9290,9211 9126,8957 8961,8705 8868,8384 8895,8005 8918,7626 9069,7204 9296,6789 9351,6684 9416,6583 9480,6477 9552,6365 9625,6253 9698,6140 9846,5907 9991,5660 10120,5397 10248,5134 10361,4857 10440,4563 10519,4269 10564,3961 10563,3650 L 10554,3418 10523,3186 C 10515,3109 10491,3035 10474,2960 L 10446,2847 10443,2833 10441,2826 10435,2807 10427,2783 10409,2734 C 10397,2701 10388,2671 10373,2635 L 10322,2519 C 10289,2439 10248,2376 10210,2306 10168,2239 10123,2174 10076,2111 10025,2050 9979,1987 9921,1932 L 9837,1849 9746,1773 C 9688,1721 9618,1681 9554,1636 9417,1558 9274,1488 9120,1451 9045,1427 8966,1418 8889,1407 8850,1399 8811,1402 8772,1400 8733,1399 8694,1395 8656,1399 8579,1408 8501,1408 8428,1428 L 8317,1453 C 8281,1462 8246,1476 8211,1488 L 8158,1507 8132,1516 8119,1521 C 8091,1532 8109,1526 8101,1529 L 8095,1532 8009,1575 C 7996,1581 7977,1593 7959,1605 L 7906,1640 7855,1676 7812,1714 C 7695,1812 7605,1932 7534,2055 7392,2302 7331,2569 7315,2827 7308,2957 7316,3085 7335,3210 7349,3272 7358,3334 7380,3394 7390,3425 7397,3453 7410,3486 7421,3513 7429,3536 7443,3566 7544,3791 7682,3978 7848,4128 8013,4276 8209,4391 8425,4412 8532,4424 8644,4403 8735,4354 8827,4304 8898,4231 8948,4154 8960,4135 8971,4115 8982,4096 8995,4072 9001,4057 9010,4037 9027,3996 9042,3951 9050,3911 9068,3826 9066,3742 9050,3665 9017,3510 8929,3389 8829,3310 8730,3231 8613,3193 8513,3209 8464,3217 8421,3238 8388,3263 8358,3291 8333,3320 8318,3349 8285,3407 8274,3457 8267,3489 8261,3522 8258,3539 8258,3539 8258,3539 8262,3523 8270,3490 8280,3458 8295,3410 8330,3357 8347,3330 8372,3305 8402,3282 8434,3261 8473,3245 8517,3242 8606,3234 8708,3276 8793,3353 8877,3431 8946,3546 8964,3680 8973,3747 8969,3817 8949,3886 8938,3922 8926,3952 8909,3986 8900,4002 8888,4025 8880,4037 L 8847,4084 C 8801,4145 8742,4196 8673,4226 8604,4256 8525,4265 8445,4251 8284,4224 8123,4118 7992,3979 7726,3699 7556,3286 7621,2854 7650,2640 7720,2423 7843,2245 7903,2156 7974,2076 8058,2017 L 8088,1994 8117,1978 8145,1961 C 8154,1955 8162,1949 8179,1943 L 8268,1906 8274,1904 C 8270,1905 8291,1896 8266,1907 L 8276,1904 8296,1899 8337,1888 C 8765,1762 9233,1935 9522,2296 9562,2337 9591,2388 9626,2434 9656,2483 9686,2534 9713,2585 9735,2638 9766,2692 9781,2742 L 9808,2817 C 9818,2845 9827,2882 9836,2914 9888,3144 9924,3392 9900,3633 9882,3876 9829,4116 9747,4350 9665,4583 9553,4809 9425,5027 9298,5245 9153,5454 8999,5661 8919,5767 8840,5872 8761,5976 8680,6089 8595,6203 8519,6321 8363,6555 8231,6807 8119,7067 8007,7327 7925,7603 7883,7886 7841,8169 7841,8461 7889,8740 7936,9020 8031,9285 8157,9517 8409,9985 8765,10315 9099,10544 9209,10621 9318,10686 9424,10744 9409,10747 9394,10750 9379,10752 9114,10790 8816,10782 8531,10682 8246,10584 7975,10388 7764,10072 7549,9759 7409,9333 7334,8866 7313,8749 7302,8629 7288,8507 7276,8374 7264,8241 7252,8106 7226,7832 7189,7547 7129,7261 7069,6975 6988,6686 6870,6405 6752,6126 6598,5856 6407,5611 L 6257,5432 6090,5269 C 6037,5213 5972,5169 5912,5120 L 5822,5049 5810,5040 5805,5035 5788,5023 5766,5009 5723,4982 C 5693,4963 5667,4945 5633,4926 L 5522,4865 C 5447,4822 5375,4798 5302,4766 5228,4739 5153,4715 5077,4694 5000,4678 4924,4656 4845,4649 L 4728,4634 4610,4630 C 4531,4625 4452,4636 4374,4640 4217,4662 4062,4695 3917,4760 3843,4787 3776,4829 3708,4867 3673,4885 3643,4911 3611,4933 3580,4957 3547,4978 3519,5004 3464,5058 3403,5106 3357,5167 L 3285,5255 C 3262,5284 3243,5317 3223,5348 L 3193,5394 3178,5418 3170,5430 C 3155,5456 3165,5440 3161,5447 L 3158,5453 3117,5540 C 3110,5553 3103,5574 3096,5594 L 3075,5655 3057,5715 3046,5771 C 3014,5921 3016,6070 3036,6210 3076,6492 3191,6741 3337,6954 3412,7060 3496,7157 3589,7243 3638,7284 3683,7328 3737,7362 3764,7380 3786,7397 3816,7415 3842,7430 3863,7443 3892,7458 4110,7574 4334,7637 4557,7654 4778,7669 5003,7640 5187,7523 5278,7467 5354,7382 5396,7287 5438,7191 5449,7091 5441,6999 5439,6976 5435,6954 5432,6932 5427,6905 5423,6890 5418,6868 5407,6826 5391,6781 5372,6744 5334,6667 5281,6601 5221,6550 5100,6448 4956,6407 4829,6405 4703,6404 4586,6446 4518,6520 4483,6556 4463,6599 4453,6639 4445,6680 4443,6718 4449,6750 4459,6816 4481,6862 4495,6892 4511,6922 4519,6937 4519,6937 4519,6937 4512,6921 4499,6891 4486,6860 4469,6812 4464,6749 4461,6717 4465,6682 4475,6645 4487,6609 4508,6573 4541,6543 4606,6483 4713,6452 4827,6462 4941,6472 5066,6520 5163,6615 5211,6662 5251,6720 5277,6787 5291,6821 5300,6853 5307,6890 5310,6909 5315,6934 5316,6948 5317,6967 5318,6986 5319,7005 5319,7082 5304,7158 5268,7225 5232,7290 5176,7346 5103,7384 4959,7462 4768,7476 4579,7448 4197,7390 3809,7168 3595,6787 3487,6600 3409,6386 3397,6171 3390,6064 3397,5957 3427,5859 L 3436,5822 3449,5792 3461,5761 C 3465,5751 3467,5742 3477,5727 L 3524,5642 3527,5637 C 3528,5636 3534,5625 3523,5644 L 3530,5636 3542,5620 3568,5586 C 3828,5224 4304,5073 4754,5180 4810,5189 4865,5211 4920,5226 4975,5246 5029,5268 5082,5292 5132,5320 5190,5344 5232,5374 L 5299,5416 C 5324,5433 5354,5456 5381,5476 5563,5625 5743,5799 5873,6004 6007,6207 6113,6428 6192,6662 6271,6897 6320,7145 6354,7395 6387,7645 6401,7899 6406,8157 6408,8289 6410,8421 6412,8551 6417,8691 6420,8833 6433,8973 6454,9254 6504,9534 6575,9808 6647,10082 6751,10350 6892,10599 7033,10849 7212,11079 7421,11270 7630,11462 7867,11612 8109,11719 8560,11917 9008,11967 9393,11955 9260,12049 9111,12130 8947,12184 8662,12279 8327,12288 7967,12165 7607,12047 7237,11793 6893,11468 6806,11388 6725,11299 6639,11211 6549,11112 6458,11014 6367,10914 6179,10712 5977,10508 5756,10317 5534,10127 5295,9946 5031,9795 4766,9644 4480,9523 4179,9445 L 3952,9394 3720,9365 C 3644,9353 3565,9358 3488,9355 L 3373,9353 3358,9353 3351,9353 3331,9354 3305,9356 3254,9360 C 3218,9363 3187,9365 3149,9370 L 3024,9390 C 2938,9401 2866,9425 2789,9444 2713,9468 2639,9494 2566,9524 2495,9558 2421,9586 2354,9629 L 2252,9688 2156,9757 C 2090,9800 2034,9858 1974,9908 1864,10021 1760,10141 1685,10281 1643,10347 1614,10421 1583,10493 1566,10528 1559,10567 1547,10604 1537,10642 1523,10678 1517,10717 1506,10793 1486,10868 1487,10944 L 1483,11058 C 1483,11095 1487,11132 1490,11170 L 1494,11225 1497,11253 1498,11266 C 1502,11297 1500,11278 1501,11286 L 1502,11292 1523,11387 C 1525,11401 1532,11422 1539,11442 L 1559,11503 1581,11562 1607,11613 C 1672,11751 1765,11869 1866,11968 2069,12168 2312,12296 2557,12377 2681,12416 2807,12441 2933,12454 2996,12457 3059,12464 3122,12458 3155,12456 3183,12456 3218,12452 3247,12448 3272,12446 3304,12440 3547,12400 3764,12314 3951,12192 4136,12070 4297,11910 4372,11705 4411,11605 4419,11492 4395,11391 4370,11289 4317,11203 4256,11135 4240,11118 4224,11102 4208,11086 4188,11068 4175,11059 4158,11045 4123,11018 4083,10992 4046,10974 3969,10935 3887,10915 3808,10911 3650,10904 3510,10959 3409,11035 3308,11111 3241,11214 3231,11315 3226,11364 3236,11411 3252,11449 3271,11486 3292,11517 3317,11539 3365,11586 3410,11609 3439,11624 3470,11638 3486,11646 3486,11646 3486,11646 3470,11637 3441,11621 3413,11604 3370,11577 3328,11529 3306,11506 3288,11475 3273,11440 3261,11404 3256,11363 3264,11319 3279,11232 3345,11143 3442,11081 3538,11020 3667,10981 3801,10998 3868,11006 3935,11029 3997,11065 4028,11085 4055,11105 4083,11129 4097,11142 4115,11159 4125,11170 L 4162,11214 C 4209,11274 4243,11344 4256,11419 4267,11493 4256,11571 4221,11645 4154,11795 4011,11923 3844,12015 3505,12201 3062,12260 2661,12087 2462,12005 2269,11882 2129,11718 2058,11637 1998,11548 1963,11452 L 1948,11417 1939,11385 1930,11353 C 1927,11343 1924,11334 1922,11316 L 1908,11220 1908,11214 C 1908,11219 1905,11196 1909,11223 L 1909,11212 1909,11191 1909,11150 C 1896,10703 2182,10295 2604,10106 2654,10079 2711,10063 2764,10042 2820,10025 2876,10009 2933,9996 2989,9988 3050,9971 3101,9970 L 3181,9962 C 3211,9960 3249,9961 3282,9960 3518,9968 3767,9997 3994,10081 4224,10161 4443,10273 4648,10411 4853,10550 5043,10716 5221,10894 5400,11073 5565,11267 5726,11468 5808,11572 5889,11676 5970,11778 6059,11886 6147,11997 6243,12100 6430,12311 6640,12503 6863,12677 7086,12851 7332,13001 7596,13113 7859,13226 8140,13300 8423,13325 8705,13350 8985,13326 9242,13263 9637,13167 9969,12993 10241,12798 10209,12888 10170,12978 10121,13064 9972,13326 9730,13556 9380,13706 9033,13859 8588,13919 8116,13908 7997,13906 7877,13895 7754,13887 7622,13874 7488,13861 7354,13848 7079,13824 6792,13808 6500,13814 6208,13821 5909,13847 5612,13912 5315,13977 5020,14078 4745,14222 L 4542,14336 4351,14470 C 4286,14512 4231,14568 4172,14617 L 4085,14694 4074,14703 4068,14708 4054,14722 4036,14741 4001,14778 C 3977,14805 3955,14827 3929,14856 L 3850,14954 C 3794,15020 3757,15086 3712,15152 3671,15220 3634,15290 3600,15360 3569,15433 3534,15504 3513,15580 L 3477,15693 3451,15808 C 3431,15884 3428,15965 3418,16042 3411,16200 3414,16359 3452,16513 3465,16590 3494,16664 3519,16738 3530,16776 3550,16810 3566,16845 3584,16880 3598,16916 3619,16949 3662,17013 3698,17082 3749,17138 L 3822,17225 C 3847,17253 3876,17277 3902,17303 L 3943,17341 3963,17360 3973,17370 C 3996,17389 3982,17377 3989,17383 L 3994,17386 4072,17443 C 4083,17451 4103,17463 4121,17473 L 4177,17504 4233,17534 4286,17555 C 4427,17614 4574,17639 4716,17644 5001,17658 5267,17590 5503,17486 5621,17432 5732,17366 5834,17291 5883,17251 5934,17214 5977,17168 6000,17145 6021,17125 6045,17099 6063,17076 6081,17059 6101,17032 6254,16840 6358,16631 6415,16415 6470,16200 6483,15974 6402,15771 6363,15671 6293,15582 6208,15523 6122,15464 6025,15435 5933,15426 5911,15424 5888,15423 5866,15422 5838,15422 5822,15423 5801,15424 5757,15427 5710,15435 5670,15447 5587,15470 5512,15509 5452,15559 5329,15660 5262,15794 5237,15918 5213,16043 5233,16164 5293,16245 5322,16286 5360,16314 5398,16331 5437,16346 5474,16355 5507,16355 5573,16357 5623,16345 5655,16336 5687,16326 5703,16321 5703,16321 5703,16321 5687,16325 5654,16332 5621,16338 5572,16347 5508,16340 5477,16338 5443,16326 5408,16311 5375,16292 5343,16264 5320,16227 5273,16152 5262,16042 5293,15931 5323,15821 5393,15706 5504,15629 5559,15590 5624,15562 5694,15548 5731,15541 5764,15538 5801,15537 5820,15538 5846,15538 5860,15539 5879,15542 5898,15544 5917,15547 5992,15560 6065,15590 6123,15637 6181,15684 6226,15750 6250,15828 6300,15984 6279,16175 6216,16355 6090,16720 5801,17061 5386,17201 5183,17273 4958,17311 4744,17283 4637,17271 4533,17244 4442,17197 L 4408,17180 4380,17162 4353,17145 C 4343,17139 4335,17136 4321,17123 L 4247,17061 4243,17057 C 4242,17057 4231,17047 4249,17062 L 4242,17054 4228,17039 4200,17008 C 3891,16685 3830,16190 4018,15768 4037,15713 4069,15664 4094,15612 4123,15562 4155,15513 4188,15466 4225,15421 4259,15369 4296,15333 L 4350,15274 C 4371,15253 4399,15228 4424,15205 4604,15053 4808,14908 5034,14819 5257,14724 5495,14660 5740,14625 5985,14591 6238,14588 6490,14601 6742,14614 6994,14647 7249,14689 7379,14711 7509,14734 7637,14756 7776,14776 7916,14800 8056,14812 8336,14844 8620,14846 8903,14826 9185,14806 9468,14753 9739,14659 10010,14567 10269,14433 10495,14263 10673,14129 10828,13973 10959,13807 11090,13973 11246,14129 11423,14263 11650,14433 11909,14567 12179,14659 12450,14753 12733,14806 13015,14826 13297,14846 13582,14844 13861,14812 14002,14800 14142,14776 14280,14756 14409,14734 14538,14711 14669,14689 14923,14647 15175,14614 15428,14601 15680,14588 15932,14591 16177,14625 16422,14660 16660,14724 16884,14819 17109,14908 17313,15053 17494,15205 17518,15228 17546,15253 17568,15274 L 17621,15333 C 17659,15369 17693,15421 17729,15466 17763,15513 17794,15562 17824,15612 17849,15664 17881,15713 17899,15768 18087,16190 18026,16685 17717,17008 L 17689,17039 17675,17054 17668,17062 C 17686,17048 17676,17056 17675,17057 L 17670,17061 17596,17123 C 17583,17136 17574,17139 17565,17145 L 17537,17162 17510,17180 17475,17197 C 17384,17244 17280,17271 17174,17283 16960,17311 16734,17273 16531,17201 16117,17061 15828,16720 15701,16355 15639,16175 15618,15984 15668,15828 15692,15750 15736,15684 15794,15637 15853,15590 15925,15560 16001,15547 16020,15544 16039,15542 16058,15539 16072,15538 16097,15538 16116,15537 16154,15538 16187,15541 16223,15548 16293,15562 16358,15590 16413,15629 16524,15706 16594,15821 16625,15931 16655,16042 16645,16152 16598,16227 16574,16264 16543,16292 16509,16311 16475,16326 16441,16338 16409,16340 16346,16347 16296,16338 16264,16332 16231,16325 16214,16321 16214,16321 16214,16321 16231,16326 16263,16336 16295,16345 16344,16357 16410,16355 16444,16355 16481,16346 16519,16331 16557,16314 16595,16286 16625,16245 16685,16164 16704,16043 16680,15918 16656,15794 16588,15660 16466,15559 16405,15509 16331,15470 16248,15447 16207,15435 16161,15427 16117,15424 16095,15423 16079,15422 16052,15422 16030,15423 16007,15424 15984,15426 15893,15435 15796,15464 15710,15523 15624,15582 15554,15671 15515,15771 15434,15974 15447,16200 15503,16415 15560,16631 15663,16840 15817,17032 15837,17059 15854,17076 15873,17099 15896,17125 15917,17145 15940,17168 15984,17214 16035,17251 16084,17291 16186,17366 16296,17432 16414,17486 16651,17590 16917,17658 17201,17644 17343,17639 17490,17614 17632,17555 L 17685,17534 17740,17504 17796,17473 C 17814,17463 17834,17451 17845,17443 L 17924,17386 17929,17383 C 17935,17377 17921,17389 17944,17370 L 17955,17360 17975,17341 18015,17303 C 18042,17277 18070,17253 18095,17225 L 18168,17138 C 18220,17082 18256,17013 18299,16949 18320,16916 18334,16880 18351,16845 18367,16810 18388,16776 18399,16738 18424,16664 18452,16590 18465,16513 18503,16359 18506,16200 18500,16042 18489,15965 18486,15884 18466,15808 L 18441,15693 18405,15580 C 18383,15504 18348,15433 18318,15360 18284,15290 18246,15220 18206,15152 18161,15086 18124,15020 18068,14954 L 17988,14856 C 17963,14827 17941,14805 17917,14778 L 17881,14741 17864,14722 17849,14708 17844,14703 17833,14694 17746,14617 C 17687,14568 17632,14512 17567,14470 L 17376,14336 17173,14222 C 16897,14078 16603,13977 16306,13912 16008,13847 15710,13821 15417,13814 15125,13808 14838,13824 14563,13848 14429,13861 14296,13874 14163,13887 14040,13895 13920,13906 13802,13908 13329,13919 12884,13859 12537,13706 12188,13556 11946,13326 11798,13064 11748,12978 11709,12888 11678,12798 11949,12993 12281,13167 12676,13263 12932,13326 13212,13350 13495,13325 13777,13300 14059,13226 14322,13113 14586,13001 14832,12851 15055,12677 15278,12503 15488,12311 15674,12100 15770,11997 15858,11886 15948,11778 16028,11676 16110,11572 16191,11468 16352,11267 16518,11073 16696,10894 16875,10716 17064,10550 17269,10411 17475,10273 17694,10161 17924,10081 18151,9997 18400,9968 18635,9960 18669,9961 18707,9960 18737,9962 L 18816,9970 C 18868,9971 18928,9988 18985,9996 19041,10009 19098,10025 19153,10042 19206,10063 19263,10079 19313,10106 19736,10295 20022,10703 20009,11150 L 20009,11191 20009,11212 20009,11223 C 20012,11199 20010,11215 20010,11215 L 20009,11220 19996,11316 C 19994,11334 19990,11343 19987,11353 L 19978,11385 19970,11417 19955,11452 C 19919,11548 19860,11637 19789,11718 19648,11882 19456,12005 19257,12087 18855,12260 18412,12201 18074,12015 17907,11923 17763,11795 17696,11645 17662,11571 17651,11493 17662,11419 17674,11344 17708,11274 17755,11214 L 17793,11170 C 17802,11159 17821,11142 17834,11129 17863,11105 17889,11085 17921,11065 17982,11029 18050,11006 18116,10998 18250,10981 18379,11020 18476,11081 18572,11143 18639,11232 18654,11319 18662,11363 18656,11404 18644,11440 18629,11475 18612,11506 18590,11529 18547,11577 18505,11604 18476,11621 18447,11637 18432,11646 18432,11646 18432,11646 18448,11638 18478,11624 18508,11609 18553,11586 18601,11539 18625,11517 18647,11486 18666,11449 18682,11411 18692,11364 18686,11315 18677,11214 18610,11111 18508,11035 18407,10959 18267,10904 18109,10911 18031,10915 17949,10935 17872,10974 17834,10992 17794,11018 17759,11045 17743,11059 17730,11068 17710,11086 17694,11102 17677,11118 17662,11135 17600,11203 17547,11289 17523,11391 17499,11492 17507,11605 17545,11705 17620,11910 17782,12070 17966,12192 18154,12314 18370,12400 18613,12440 18646,12446 18670,12448 18699,12452 18734,12456 18763,12456 18795,12458 18859,12464 18921,12457 18985,12454 19111,12441 19237,12416 19360,12377 19606,12296 19849,12168 20052,11968 20153,11869 20245,11751 20311,11613 L 20337,11562 20358,11503 20379,11442 C 20385,11422 20392,11401 20395,11387 L 20415,11292 20416,11286 C 20418,11278 20415,11297 20420,11266 L 20421,11253 20423,11225 20428,11170 C 20430,11132 20435,11095 20435,11058 L 20431,10944 Z"/>
       </g>
      </g>
      <g class="com.sun.star.drawing.ClosedBezierShape">
       <g id="id4">
        <rect class="BoundingBox" stroke="none" fill="none" x="9975" y="7616" width="654" height="372"/>
        <path fill="rgb(255,0,0)" stroke="none" d="M 9975,7616 L 10628,7875 C 10167,8233 9975,7616 9975,7616 Z"/>
       </g>
      </g>
      <g class="com.sun.star.drawing.ClosedBezierShape">
       <g id="id5">
        <rect class="BoundingBox" stroke="none" fill="none" x="11252" y="7616" width="655" height="372"/>
        <path fill="rgb(255,0,0)" stroke="none" d="M 11905,7616 C 11905,7616 11713,8233 11252,7875 L 11905,7616 Z"/>
       </g>
      </g>
     </g>
    </g>
   </g>
  </g>
 </g>
</svg>